<?xml version="1.0" encoding="UTF-8" ?>
<!DOCTYPE svg PUBLIC "-//W3C//DTD SVG 1.1//EN" "http://www.w3.org/Graphics/SVG/1.1/DTD/svg11.dtd">
<svg width="1271pt" height="182pt" viewBox="0 0 1271 182" version="1.1" xmlns="http://www.w3.org/2000/svg">
<path fill="#4d5f6e" d=" M 5.00 4.89 C 28.31 6.11 51.74 6.99 75.02 4.98 C 74.96 7.75 74.96 10.52 74.92 13.29 C 69.27 14.16 63.55 15.77 58.86 19.16 C 59.04 23.30 62.30 26.34 64.16 29.79 C 73.83 43.99 82.97 58.55 92.91 72.56 C 102.56 57.71 113.14 43.45 122.18 28.22 C 126.12 19.35 115.13 14.37 108.27 13.04 C 108.14 10.32 108.04 7.61 107.93 4.89 C 128.27 6.40 148.66 5.93 169.01 4.91 C 168.96 7.79 169.00 10.68 168.98 13.57 C 156.92 14.09 143.50 16.43 135.63 26.60 C 122.57 44.41 110.31 62.80 97.77 80.98 C 115.43 106.81 132.56 133.01 149.98 159.01 C 152.71 163.57 156.60 167.75 161.98 169.00 C 167.88 170.24 174.00 169.84 179.99 170.29 C 179.97 173.19 180.00 176.15 180.00 179.07 C 156.35 177.88 132.61 177.13 108.99 179.05 C 108.98 176.20 109.05 173.47 109.06 170.66 C 114.38 169.57 121.18 169.48 124.77 164.68 C 125.70 160.53 121.69 157.34 120.11 153.94 C 108.17 136.31 96.77 118.33 84.76 100.75 C 73.41 117.43 62.24 134.24 50.77 150.85 C 48.23 153.97 46.60 157.78 46.91 161.90 C 49.95 167.39 56.01 169.60 61.74 170.92 C 61.85 173.64 61.96 176.39 62.06 179.11 C 41.73 177.67 21.32 177.82 0.98 179.11 C 1.00 176.18 1.02 173.35 1.04 170.44 C 9.37 169.28 18.45 169.31 25.90 164.83 C 34.63 159.95 39.60 151.00 45.05 143.03 C 56.12 125.86 68.03 109.25 79.11 92.09 C 64.26 70.15 49.80 47.96 35.02 25.97 C 32.47 22.63 30.23 18.74 26.64 16.39 C 19.73 13.88 12.24 14.23 5.01 13.74 C 5.00 10.78 5.00 7.84 5.00 4.89 Z" />
<path fill="#4d5f6e" d=" M 191.01 5.00 C 217.30 6.44 243.70 6.59 269.99 4.95 C 269.94 7.90 270.02 10.84 270.00 13.78 C 261.99 14.20 253.62 12.97 245.96 15.96 C 241.43 18.39 243.94 24.99 242.96 28.97 C 242.96 70.65 243.08 112.34 242.91 154.02 C 243.54 158.53 241.81 164.14 245.15 167.92 C 253.17 170.47 261.70 169.86 270.00 170.20 C 269.96 173.13 270.01 176.12 269.99 179.06 C 243.69 177.63 217.30 177.40 191.01 179.05 C 190.97 176.08 191.02 173.19 191.00 170.25 C 199.27 169.93 207.85 170.92 215.75 167.77 C 220.16 164.37 218.23 157.72 219.02 153.03 C 218.95 111.34 219.13 69.65 218.94 27.97 C 218.60 24.13 219.17 18.97 215.78 16.18 C 207.83 13.38 199.26 14.20 191.00 13.80 C 190.97 10.87 191.02 7.94 191.01 5.00 Z" />
<path fill="#4d5f6e" d=" M 285.00 5.03 C 298.34 5.05 311.68 4.83 325.02 4.84 C 328.32 5.32 332.57 4.13 335.50 6.43 C 339.33 13.03 341.69 20.33 344.51 27.40 C 356.32 58.53 368.50 89.53 380.44 120.62 C 384.44 130.78 388.03 141.11 392.43 151.11 C 411.31 102.30 430.61 53.64 449.92 4.99 C 466.61 4.98 483.30 5.01 500.00 5.01 C 499.90 7.90 500.04 10.80 500.00 13.70 C 492.01 14.04 483.82 13.45 476.13 16.08 C 473.14 19.61 474.60 24.79 473.96 28.97 C 473.97 72.32 474.05 115.68 473.92 159.04 C 474.09 161.75 473.23 166.07 476.25 167.79 C 483.83 170.56 492.07 169.78 500.00 170.28 C 499.93 173.19 500.02 176.15 499.99 179.07 C 475.36 177.77 450.63 177.27 426.01 179.03 C 425.93 176.06 426.03 173.18 426.00 170.23 C 432.11 169.92 438.34 170.50 444.41 169.49 C 447.19 168.86 450.69 167.72 451.52 164.62 C 452.44 154.78 452.03 144.87 452.06 135.00 C 451.76 95.89 452.36 56.78 451.74 17.67 C 432.24 66.14 413.70 115.00 394.52 163.61 C 391.61 169.58 391.41 178.64 383.31 180.12 C 361.39 125.86 340.96 71.02 319.34 16.64 C 318.61 60.10 319.16 103.56 318.97 147.03 C 319.33 152.86 318.59 160.14 323.75 164.24 C 329.37 170.26 338.53 168.95 345.96 170.39 C 345.94 173.27 346.01 176.21 346.01 179.10 C 325.66 178.73 305.32 177.51 284.99 179.09 C 284.93 176.17 285.04 173.34 285.03 170.43 C 293.30 169.77 302.69 169.39 308.82 162.83 C 311.74 158.93 310.38 153.51 311.02 149.03 C 311.02 109.01 311.00 68.99 311.04 28.97 C 310.39 24.77 311.82 19.63 308.89 16.05 C 301.15 13.70 292.97 14.11 285.01 13.72 C 284.96 10.82 285.02 7.92 285.00 5.03 Z" />
<path fill="#4d5f6e" d=" M 769.00 5.03 C 784.01 5.11 799.03 4.68 814.05 4.92 C 815.61 5.12 817.71 4.74 818.66 6.35 C 822.70 12.85 824.77 20.29 827.70 27.31 C 843.50 68.65 859.68 109.84 875.44 151.20 C 894.15 103.93 912.81 56.64 931.35 9.31 C 932.03 7.83 932.68 6.06 934.34 5.41 C 950.53 4.30 966.78 5.19 983.00 5.02 C 982.80 7.92 983.07 10.83 983.00 13.73 C 975.58 14.24 967.83 13.04 960.77 15.82 C 955.87 18.65 957.50 25.37 956.97 29.97 C 956.88 68.31 957.18 106.66 956.87 145.00 C 957.02 152.84 956.57 160.84 958.52 168.52 C 966.65 169.35 974.81 169.91 982.99 170.28 C 982.87 173.19 983.05 176.15 982.99 179.07 C 958.69 177.81 934.30 177.23 910.02 178.99 C 909.82 176.08 910.08 173.26 910.01 170.37 C 917.64 169.91 925.46 170.15 932.89 167.95 C 935.82 164.37 934.36 159.22 935.04 155.03 C 934.91 109.26 935.23 63.48 934.80 17.71 C 915.37 67.06 896.21 116.51 876.90 165.90 C 875.03 170.29 874.07 175.30 870.71 178.87 C 868.09 179.68 865.39 178.16 864.53 175.62 C 843.99 123.36 824.14 70.81 803.33 18.65 C 802.57 60.43 803.25 102.23 802.90 144.01 C 803.69 150.45 801.43 158.49 806.21 163.81 C 812.37 169.47 821.14 169.38 828.96 170.36 C 828.87 173.25 829.03 176.19 829.01 179.10 C 809.00 178.71 788.98 177.63 768.99 179.09 C 768.80 176.18 769.09 173.39 769.03 170.51 C 776.71 169.66 785.88 169.69 791.47 163.47 C 795.57 158.38 794.37 151.04 795.02 145.03 C 795.05 106.68 794.95 68.33 795.06 29.98 C 794.77 25.47 795.51 19.60 791.78 16.17 C 784.45 13.70 776.60 14.13 769.02 13.55 C 768.91 10.71 769.04 7.87 769.00 5.03 Z" />
<path fill="#4d5f6e" d=" M 998.01 4.89 C 1023.97 6.41 1050.03 6.63 1075.99 4.96 C 1075.77 7.87 1076.08 10.79 1076.00 13.70 C 1068.06 14.13 1059.82 13.23 1052.28 16.25 C 1047.77 19.16 1049.64 25.58 1048.96 29.97 C 1048.92 71.65 1049.14 113.34 1048.86 155.02 C 1049.02 159.17 1048.17 165.01 1052.27 167.76 C 1059.82 170.60 1068.07 169.76 1076.00 170.28 C 1075.86 173.18 1076.05 176.14 1075.99 179.06 C 1050.02 177.67 1023.97 177.36 998.01 179.02 C 997.82 176.06 998.07 173.17 998.00 170.23 C 1005.91 169.74 1014.36 171.20 1021.86 167.87 C 1026.59 165.58 1024.12 159.03 1025.05 155.03 C 1024.98 113.34 1025.01 71.66 1025.04 29.97 C 1024.28 25.57 1026.24 19.17 1021.73 16.24 C 1014.16 13.40 1005.89 14.23 998.00 13.72 C 997.87 10.78 998.05 7.84 998.01 4.89 Z" />
<path fill="#4d5f6e" d=" M 1092.00 4.89 C 1115.64 6.15 1139.40 6.96 1163.02 4.94 C 1162.65 7.73 1163.08 10.52 1162.93 13.32 C 1156.57 13.78 1150.42 16.00 1145.39 19.92 C 1156.90 37.45 1167.64 55.59 1180.28 72.34 C 1188.93 58.73 1198.20 45.53 1207.12 32.09 C 1210.10 28.59 1211.53 22.55 1208.08 18.93 C 1204.65 15.54 1199.66 14.52 1195.23 13.21 C 1195.01 10.44 1195.08 7.66 1194.95 4.89 C 1215.61 6.45 1236.33 5.85 1257.02 4.91 C 1256.71 7.80 1257.09 10.69 1256.97 13.58 C 1249.26 14.55 1241.07 14.39 1234.01 18.04 C 1227.08 20.98 1222.28 27.07 1218.08 33.05 C 1207.09 49.06 1195.90 64.92 1184.93 80.94 C 1201.84 106.38 1219.10 131.57 1235.99 157.01 C 1238.98 161.11 1241.75 166.16 1246.71 168.22 C 1253.28 170.16 1260.19 169.89 1266.97 170.47 C 1266.82 173.29 1267.05 176.17 1267.00 179.00 C 1243.34 177.53 1219.61 177.61 1195.97 179.03 C 1195.62 176.23 1196.19 173.57 1196.10 170.81 C 1201.81 169.10 1207.70 167.66 1213.14 165.11 C 1211.00 159.26 1207.37 154.16 1204.07 148.95 C 1193.43 132.97 1182.81 116.98 1172.38 100.87 C 1159.40 119.48 1146.00 137.88 1134.30 157.32 C 1132.47 166.11 1142.94 170.09 1149.85 170.64 C 1149.77 173.41 1150.02 176.22 1150.03 178.99 C 1129.36 177.45 1108.65 178.08 1087.99 179.09 C 1087.74 176.16 1088.11 173.33 1088.03 170.43 C 1099.73 169.45 1113.34 168.28 1121.22 158.23 C 1137.36 137.23 1150.66 114.19 1166.26 92.78 C 1159.93 82.24 1153.09 72.03 1146.09 61.94 C 1136.57 48.06 1128.05 33.49 1118.02 19.97 C 1111.83 12.52 1100.54 14.86 1092.01 13.73 C 1091.86 10.78 1092.06 7.84 1092.00 4.89 Z" />
<path fill="#4d5f6e" d=" M 557.99 41.08 C 574.79 36.18 592.93 41.38 607.02 50.97 C 618.45 59.31 627.51 70.30 636.13 81.39 C 647.05 65.54 660.20 49.54 678.84 42.71 C 689.44 39.44 701.08 37.62 711.88 41.11 C 724.99 45.21 734.80 56.28 740.68 68.33 C 747.87 85.88 749.18 106.57 741.18 124.10 C 734.89 138.67 722.22 151.64 705.92 153.91 C 683.30 158.30 661.05 146.06 646.32 129.69 C 641.09 124.51 637.82 117.33 631.65 113.16 C 621.97 126.72 611.16 140.32 596.05 148.09 C 587.53 152.75 577.65 154.57 568.03 154.87 C 554.81 154.23 542.04 147.55 533.94 137.08 C 518.89 116.64 516.59 87.29 529.15 65.09 C 535.37 54.03 545.22 43.93 557.99 41.08 Z" />
<path fill="#f5f5f5" d=" M 682.00 51.98 C 696.13 45.46 714.44 46.85 725.62 58.38 C 740.99 74.29 745.56 100.33 735.11 120.08 C 728.82 131.26 717.58 140.76 704.32 141.40 C 691.27 142.86 679.85 134.60 670.96 126.04 C 661.18 115.16 652.62 103.24 643.55 91.77 C 652.55 75.53 664.66 59.80 682.00 51.98 Z" />
<path fill="#f5f5f5" d=" M 556.81 53.69 C 566.07 50.91 576.23 52.44 584.33 57.66 C 601.84 68.69 611.75 87.46 624.93 102.79 C 615.25 118.56 603.20 134.07 586.00 142.05 C 572.78 147.50 555.64 147.69 544.75 137.26 C 530.90 125.88 526.54 106.45 528.35 89.31 C 530.86 73.74 541.03 58.11 556.81 53.69 Z" />
</svg>
